<svg width="493" height="42" viewBox="0 0 493 42" fill="none" xmlns="http://www.w3.org/2000/svg">
<path d="M1.88 15.6401V1.64014H7.5C8.51333 1.64014 9.42667 1.8068 10.24 2.14014C11.0667 2.47347 11.7733 2.95347 12.36 3.58014C12.96 4.2068 13.4133 4.9468 13.72 5.80014C14.04 6.65347 14.2 7.60014 14.2 8.64014C14.2 9.68014 14.04 10.6335 13.72 11.5001C13.4133 12.3535 12.9667 13.0935 12.38 13.7201C11.7933 14.3335 11.0867 14.8068 10.26 15.1401C9.43333 15.4735 8.51333 15.6401 7.5 15.6401H1.88ZM4.48 13.6201L4.28 13.2401H7.4C8.05333 13.2401 8.63333 13.1335 9.14 12.9201C9.66 12.7068 10.1 12.4001 10.46 12.0001C10.82 11.6001 11.0933 11.1201 11.28 10.5601C11.4667 9.9868 11.56 9.3468 11.56 8.64014C11.56 7.93347 11.4667 7.30014 11.28 6.74014C11.0933 6.1668 10.8133 5.68014 10.44 5.28014C10.08 4.88014 9.64667 4.57347 9.14 4.36014C8.63333 4.1468 8.05333 4.04014 7.4 4.04014H4.22L4.48 3.70014V13.6201ZM16.8567 15.6401V5.10014H19.3167V15.6401H16.8567ZM18.0567 2.86014C17.5634 2.86014 17.1767 2.74014 16.8967 2.50014C16.6301 2.2468 16.4967 1.89347 16.4967 1.44014C16.4967 1.01347 16.6367 0.666803 16.9167 0.400136C17.1967 0.133469 17.5767 0.000135422 18.0567 0.000135422C18.5634 0.000135422 18.9501 0.126802 19.2167 0.380136C19.4967 0.620136 19.6367 0.973469 19.6367 1.44014C19.6367 1.85347 19.4967 2.19347 19.2167 2.46014C18.9367 2.7268 18.5501 2.86014 18.0567 2.86014ZM25.8161 15.6401L21.3761 5.10014H24.0561L27.0561 12.9801L26.5361 13.1201L29.6961 5.10014H32.3161L27.6561 15.6401H25.8161ZM38.7628 15.8401C37.6561 15.8401 36.6761 15.6068 35.8228 15.1401C34.9828 14.6735 34.3228 14.0401 33.8428 13.2401C33.3761 12.4268 33.1428 11.5001 33.1428 10.4601C33.1428 9.63347 33.2761 8.88014 33.5428 8.20014C33.8095 7.52014 34.1761 6.93347 34.6428 6.44014C35.1228 5.93347 35.6895 5.5468 36.3428 5.28014C37.0095 5.00014 37.7361 4.86014 38.5228 4.86014C39.2161 4.86014 39.8628 4.99347 40.4628 5.26014C41.0628 5.5268 41.5828 5.89347 42.0228 6.36014C42.4628 6.81347 42.7961 7.36014 43.0228 8.00014C43.2628 8.6268 43.3761 9.31347 43.3628 10.0601L43.3428 10.9201H34.8028L34.3428 9.24014H41.2828L40.9628 9.58014V9.14014C40.9228 8.7268 40.7895 8.3668 40.5628 8.06014C40.3361 7.74014 40.0428 7.49347 39.6828 7.32014C39.3361 7.13347 38.9495 7.04014 38.5228 7.04014C37.8695 7.04014 37.3161 7.1668 36.8628 7.42014C36.4228 7.67347 36.0895 8.04014 35.8628 8.52014C35.6361 8.9868 35.5228 9.57347 35.5228 10.2801C35.5228 10.9601 35.6628 11.5535 35.9428 12.0601C36.2361 12.5668 36.6428 12.9601 37.1628 13.2401C37.6961 13.5068 38.3161 13.6401 39.0228 13.6401C39.5161 13.6401 39.9695 13.5601 40.3828 13.4001C40.7961 13.2401 41.2428 12.9535 41.7228 12.5401L42.9428 14.2401C42.5828 14.5735 42.1695 14.8601 41.7028 15.1001C41.2495 15.3268 40.7695 15.5068 40.2628 15.6401C39.7561 15.7735 39.2561 15.8401 38.7628 15.8401ZM45.5416 15.6401V5.10014H47.9616L48.0016 8.46014L47.6616 7.70014C47.8082 7.1668 48.0616 6.6868 48.4216 6.26014C48.7816 5.83347 49.1949 5.50014 49.6616 5.26014C50.1416 5.0068 50.6416 4.88014 51.1616 4.88014C51.3882 4.88014 51.6016 4.90014 51.8016 4.94014C52.0149 4.98014 52.1882 5.0268 52.3216 5.08014L51.6616 7.78014C51.5149 7.70014 51.3349 7.63347 51.1216 7.58014C50.9082 7.5268 50.6949 7.50014 50.4816 7.50014C50.1482 7.50014 49.8282 7.5668 49.5216 7.70014C49.2282 7.82014 48.9682 7.99347 48.7416 8.22014C48.5149 8.4468 48.3349 8.71347 48.2016 9.02014C48.0816 9.31347 48.0216 9.6468 48.0216 10.0201V15.6401H45.5416ZM55.4902 15.6401V2.42014H57.9502V15.6401H55.4902ZM53.4102 7.38014V5.10014H60.2502V7.38014H53.4102ZM66.9659 15.8401C65.8593 15.8401 64.8793 15.6068 64.0259 15.1401C63.1859 14.6735 62.5259 14.0401 62.0459 13.2401C61.5793 12.4268 61.3459 11.5001 61.3459 10.4601C61.3459 9.63347 61.4793 8.88014 61.7459 8.20014C62.0126 7.52014 62.3793 6.93347 62.8459 6.44014C63.3259 5.93347 63.8926 5.5468 64.5459 5.28014C65.2126 5.00014 65.9393 4.86014 66.7259 4.86014C67.4193 4.86014 68.0659 4.99347 68.6659 5.26014C69.2659 5.5268 69.7859 5.89347 70.2259 6.36014C70.6659 6.81347 70.9993 7.36014 71.2259 8.00014C71.4659 8.6268 71.5793 9.31347 71.5659 10.0601L71.5459 10.9201H63.0059L62.5459 9.24014H69.4859L69.1659 9.58014V9.14014C69.1259 8.7268 68.9926 8.3668 68.7659 8.06014C68.5393 7.74014 68.2459 7.49347 67.8859 7.32014C67.5393 7.13347 67.1526 7.04014 66.7259 7.04014C66.0726 7.04014 65.5193 7.1668 65.0659 7.42014C64.6259 7.67347 64.2926 8.04014 64.0659 8.52014C63.8393 8.9868 63.7259 9.57347 63.7259 10.2801C63.7259 10.9601 63.8659 11.5535 64.1459 12.0601C64.4393 12.5668 64.8459 12.9601 65.3659 13.2401C65.8993 13.5068 66.5193 13.6401 67.2259 13.6401C67.7193 13.6401 68.1726 13.5601 68.5859 13.4001C68.9993 13.2401 69.4459 12.9535 69.9259 12.5401L71.1459 14.2401C70.7859 14.5735 70.3726 14.8601 69.9059 15.1001C69.4526 15.3268 68.9726 15.5068 68.4659 15.6401C67.9593 15.7735 67.4593 15.8401 66.9659 15.8401ZM73.7447 15.6401V5.10014H76.1647L76.2047 8.46014L75.8647 7.70014C76.0114 7.1668 76.2647 6.6868 76.6247 6.26014C76.9847 5.83347 77.398 5.50014 77.8647 5.26014C78.3447 5.0068 78.8447 4.88014 79.3647 4.88014C79.5914 4.88014 79.8047 4.90014 80.0047 4.94014C80.218 4.98014 80.3914 5.0268 80.5247 5.08014L79.8647 7.78014C79.718 7.70014 79.538 7.63347 79.3247 7.58014C79.1114 7.5268 78.898 7.50014 78.6847 7.50014C78.3514 7.50014 78.0314 7.5668 77.7247 7.70014C77.4314 7.82014 77.1714 7.99347 76.9447 8.22014C76.718 8.4468 76.538 8.71347 76.4047 9.02014C76.2847 9.31347 76.2247 9.6468 76.2247 10.0201V15.6401H73.7447ZM92.5416 15.6401L86.9416 1.64014H89.7816L92.9016 9.66014C93.0616 10.0735 93.2016 10.4468 93.3216 10.7801C93.4416 11.1001 93.5482 11.3935 93.6416 11.6601C93.7349 11.9268 93.8149 12.1868 93.8816 12.4401C93.9616 12.6935 94.0482 12.9601 94.1416 13.2401H93.5816C93.6749 12.8801 93.7749 12.5268 93.8816 12.1801C93.9882 11.8201 94.1082 11.4401 94.2416 11.0401C94.3882 10.6401 94.5616 10.1801 94.7616 9.66014L97.6816 1.64014H100.542L94.9016 15.6401H92.5416ZM105.108 15.8401C104.241 15.8401 103.454 15.6001 102.748 15.1201C102.041 14.6401 101.474 13.9868 101.048 13.1601C100.621 12.3335 100.408 11.3935 100.408 10.3401C100.408 9.2868 100.621 8.3468 101.048 7.52014C101.474 6.69347 102.054 6.0468 102.788 5.58014C103.521 5.11347 104.348 4.88014 105.268 4.88014C105.801 4.88014 106.288 4.96014 106.728 5.12014C107.168 5.2668 107.554 5.48014 107.888 5.76014C108.221 6.04014 108.494 6.36014 108.708 6.72014C108.934 7.08014 109.088 7.4668 109.168 7.88014L108.628 7.74014V5.10014H111.108V15.6401H108.608V13.1201L109.188 13.0201C109.094 13.3801 108.921 13.7335 108.668 14.0801C108.428 14.4135 108.121 14.7135 107.748 14.9801C107.388 15.2335 106.981 15.4401 106.528 15.6001C106.088 15.7601 105.614 15.8401 105.108 15.8401ZM105.788 13.6601C106.361 13.6601 106.868 13.5201 107.308 13.2401C107.748 12.9601 108.088 12.5735 108.328 12.0801C108.581 11.5735 108.708 10.9935 108.708 10.3401C108.708 9.70014 108.581 9.13347 108.328 8.64014C108.088 8.1468 107.748 7.76014 107.308 7.48014C106.868 7.20014 106.361 7.06014 105.788 7.06014C105.214 7.06014 104.708 7.20014 104.268 7.48014C103.841 7.76014 103.508 8.1468 103.268 8.64014C103.028 9.13347 102.908 9.70014 102.908 10.3401C102.908 10.9935 103.028 11.5735 103.268 12.0801C103.508 12.5735 103.841 12.9601 104.268 13.2401C104.708 13.5201 105.214 13.6601 105.788 13.6601ZM113.98 15.6401V0.840137H116.46V15.6401H113.98ZM122.222 15.6401L117.782 5.10014H120.462L123.462 12.9801L122.942 13.1201L126.102 5.10014H128.722L124.062 15.6401H122.222ZM135.169 15.8401C134.062 15.8401 133.082 15.6068 132.229 15.1401C131.389 14.6735 130.729 14.0401 130.249 13.2401C129.782 12.4268 129.549 11.5001 129.549 10.4601C129.549 9.63347 129.682 8.88014 129.949 8.20014C130.216 7.52014 130.582 6.93347 131.049 6.44014C131.529 5.93347 132.096 5.5468 132.749 5.28014C133.416 5.00014 134.142 4.86014 134.929 4.86014C135.622 4.86014 136.269 4.99347 136.869 5.26014C137.469 5.5268 137.989 5.89347 138.429 6.36014C138.869 6.81347 139.202 7.36014 139.429 8.00014C139.669 8.6268 139.782 9.31347 139.769 10.0601L139.749 10.9201H131.209L130.749 9.24014H137.689L137.369 9.58014V9.14014C137.329 8.7268 137.196 8.3668 136.969 8.06014C136.742 7.74014 136.449 7.49347 136.089 7.32014C135.742 7.13347 135.356 7.04014 134.929 7.04014C134.276 7.04014 133.722 7.1668 133.269 7.42014C132.829 7.67347 132.496 8.04014 132.269 8.52014C132.042 8.9868 131.929 9.57347 131.929 10.2801C131.929 10.9601 132.069 11.5535 132.349 12.0601C132.642 12.5668 133.049 12.9601 133.569 13.2401C134.102 13.5068 134.722 13.6401 135.429 13.6401C135.922 13.6401 136.376 13.5601 136.789 13.4001C137.202 13.2401 137.649 12.9535 138.129 12.5401L139.349 14.2401C138.989 14.5735 138.576 14.8601 138.109 15.1001C137.656 15.3268 137.176 15.5068 136.669 15.6401C136.162 15.7735 135.662 15.8401 135.169 15.8401Z" fill="white"/>
<path d="M333.415 16.6401V2.64014H339.375C340.295 2.64014 341.068 2.77347 341.695 3.04014C342.335 3.3068 342.815 3.7068 343.135 4.24014C343.468 4.76014 343.635 5.39347 343.635 6.14014C343.635 6.91347 343.428 7.5668 343.015 8.10014C342.602 8.63347 342.022 9.00014 341.275 9.20014L341.255 8.80014C341.882 8.93347 342.428 9.17347 342.895 9.52014C343.362 9.85347 343.722 10.2735 343.975 10.7801C344.242 11.2735 344.375 11.8401 344.375 12.4801C344.375 13.1601 344.262 13.7601 344.035 14.2801C343.822 14.8001 343.502 15.2335 343.075 15.5801C342.648 15.9268 342.142 16.1935 341.555 16.3801C340.968 16.5535 340.308 16.6401 339.575 16.6401H333.415ZM335.955 14.3001H339.455C339.948 14.3001 340.362 14.2268 340.695 14.0801C341.042 13.9335 341.302 13.7201 341.475 13.4401C341.662 13.1468 341.755 12.8001 341.755 12.4001C341.755 12.0268 341.655 11.7068 341.455 11.4401C341.268 11.1735 340.995 10.9735 340.635 10.8401C340.275 10.6935 339.848 10.6201 339.355 10.6201H335.955V14.3001ZM335.955 8.38014H339.135C339.522 8.38014 339.855 8.3068 340.135 8.16014C340.428 8.01347 340.655 7.81347 340.815 7.56014C340.975 7.3068 341.055 7.01347 341.055 6.68014C341.055 6.1468 340.875 5.73347 340.515 5.44014C340.155 5.13347 339.628 4.98014 338.935 4.98014H335.955V8.38014ZM345.625 16.6401L351.085 2.64014H353.525L358.945 16.6401H356.245L353.245 8.68014C353.178 8.52014 353.085 8.2668 352.965 7.92014C352.858 7.57347 352.738 7.20014 352.605 6.80014C352.471 6.3868 352.351 6.0068 352.245 5.66014C352.138 5.30014 352.058 5.04014 352.005 4.88014L352.505 4.86014C352.425 5.1268 352.331 5.4268 352.225 5.76014C352.118 6.09347 352.005 6.44014 351.885 6.80014C351.765 7.16014 351.645 7.5068 351.525 7.84014C351.418 8.17347 351.318 8.47347 351.225 8.74014L348.225 16.6401H345.625ZM348.105 13.4401L349.005 11.1801H355.385L356.345 13.4401H348.105ZM361.15 16.6401V2.64014H363.75V14.2401H370.21V16.6401H361.15ZM373.181 16.6401V2.64014H375.781V14.2401H382.241V16.6401H373.181ZM391.091 16.6401V2.64014H396.711C397.724 2.64014 398.638 2.8068 399.451 3.14014C400.278 3.47347 400.984 3.95347 401.571 4.58014C402.171 5.2068 402.624 5.9468 402.931 6.80014C403.251 7.65347 403.411 8.60014 403.411 9.64014C403.411 10.6801 403.251 11.6335 402.931 12.5001C402.624 13.3535 402.178 14.0935 401.591 14.7201C401.004 15.3335 400.298 15.8068 399.471 16.1401C398.644 16.4735 397.724 16.6401 396.711 16.6401H391.091ZM393.691 14.6201L393.491 14.2401H396.611C397.264 14.2401 397.844 14.1335 398.351 13.9201C398.871 13.7068 399.311 13.4001 399.671 13.0001C400.031 12.6001 400.304 12.1201 400.491 11.5601C400.678 10.9868 400.771 10.3468 400.771 9.64014C400.771 8.93347 400.678 8.30014 400.491 7.74014C400.304 7.1668 400.024 6.68014 399.651 6.28014C399.291 5.88014 398.858 5.57347 398.351 5.36014C397.844 5.1468 397.264 5.04014 396.611 5.04014H393.431L393.691 4.70014V14.6201ZM405.515 16.6401V14.3401H407.815V4.94014H405.515V2.64014H412.715V4.94014H410.415V14.3401H412.715V16.6401H405.515ZM420.092 16.6401L414.492 2.64014H417.332L420.452 10.6601C420.612 11.0735 420.752 11.4468 420.872 11.7801C420.992 12.1001 421.099 12.3935 421.192 12.6601C421.286 12.9268 421.366 13.1868 421.432 13.4401C421.512 13.6935 421.599 13.9601 421.692 14.2401H421.132C421.226 13.8801 421.326 13.5268 421.432 13.1801C421.539 12.8201 421.659 12.4401 421.792 12.0401C421.939 11.6401 422.112 11.1801 422.312 10.6601L425.232 2.64014H428.092L422.452 16.6401H420.092ZM430.31 16.6401V2.64014H439.47V5.00014H432.87V14.2801H439.55V16.6401H430.31ZM431.51 10.6401V8.32014H438.45V10.6401H431.51ZM442.81 16.6401V2.64014H448.89C449.73 2.64014 450.496 2.84014 451.19 3.24014C451.883 3.6268 452.43 4.16014 452.83 4.84014C453.243 5.5068 453.45 6.26014 453.45 7.10014C453.45 7.90014 453.243 8.64014 452.83 9.32014C452.43 9.9868 451.883 10.5201 451.19 10.9201C450.51 11.3068 449.743 11.5001 448.89 11.5001H445.35V16.6401H442.81ZM450.93 16.6401L447.37 10.3201L450.05 9.82014L454.01 16.6601L450.93 16.6401ZM445.35 9.24014H448.91C449.296 9.24014 449.63 9.15347 449.91 8.98014C450.203 8.79347 450.43 8.54014 450.59 8.22014C450.75 7.90014 450.83 7.5468 450.83 7.16014C450.83 6.72014 450.73 6.34014 450.53 6.02014C450.33 5.70014 450.05 5.4468 449.69 5.26014C449.33 5.07347 448.916 4.98014 448.45 4.98014H445.35V9.24014ZM459.164 16.6401V5.04014H455.164V2.64014H465.884V5.04014H461.764V16.6401H459.164ZM468.435 16.6401V2.64014H477.595V5.00014H470.995V14.2801H477.675V16.6401H468.435ZM469.635 10.6401V8.32014H476.575V10.6401H469.635ZM480.935 16.6401V2.64014H487.015C487.855 2.64014 488.621 2.84014 489.315 3.24014C490.008 3.6268 490.555 4.16014 490.955 4.84014C491.368 5.5068 491.575 6.26014 491.575 7.10014C491.575 7.90014 491.368 8.64014 490.955 9.32014C490.555 9.9868 490.008 10.5201 489.315 10.9201C488.635 11.3068 487.868 11.5001 487.015 11.5001H483.475V16.6401H480.935ZM489.055 16.6401L485.495 10.3201L488.175 9.82014L492.135 16.6601L489.055 16.6401ZM483.475 9.24014H487.035C487.421 9.24014 487.755 9.15347 488.035 8.98014C488.328 8.79347 488.555 8.54014 488.715 8.22014C488.875 7.90014 488.955 7.5468 488.955 7.16014C488.955 6.72014 488.855 6.34014 488.655 6.02014C488.455 5.70014 488.175 5.4468 487.815 5.26014C487.455 5.07347 487.041 4.98014 486.575 4.98014H483.475V9.24014ZM434.897 41.6401L429.297 27.6401H432.137L435.257 35.6601C435.417 36.0735 435.557 36.4468 435.677 36.7801C435.797 37.1001 435.904 37.3935 435.997 37.6601C436.09 37.9268 436.17 38.1868 436.237 38.4401C436.317 38.6935 436.404 38.9601 436.497 39.2401H435.937C436.03 38.8801 436.13 38.5268 436.237 38.1801C436.344 37.8201 436.464 37.4401 436.597 37.0401C436.744 36.6401 436.917 36.1801 437.117 35.6601L440.037 27.6401H442.897L437.257 41.6401H434.897ZM442.05 41.6401L447.51 27.6401H449.95L455.37 41.6401H452.67L449.67 33.6801C449.604 33.5201 449.51 33.2668 449.39 32.9201C449.284 32.5735 449.164 32.2001 449.03 31.8001C448.897 31.3868 448.777 31.0068 448.67 30.6601C448.564 30.3001 448.484 30.0401 448.43 29.8801L448.93 29.8601C448.85 30.1268 448.757 30.4268 448.65 30.7601C448.544 31.0935 448.43 31.4401 448.31 31.8001C448.19 32.1601 448.07 32.5068 447.95 32.8401C447.844 33.1735 447.744 33.4735 447.65 33.7401L444.65 41.6401H442.05ZM444.53 38.4401L445.43 36.1801H451.81L452.77 38.4401H444.53ZM457.575 41.6401V27.6401H460.175V39.2401H466.635V41.6401H457.575ZM472.163 41.6401L466.563 27.6401H469.403L472.523 35.6601C472.683 36.0735 472.823 36.4468 472.943 36.7801C473.063 37.1001 473.169 37.3935 473.263 37.6601C473.356 37.9268 473.436 38.1868 473.503 38.4401C473.583 38.6935 473.669 38.9601 473.763 39.2401H473.203C473.296 38.8801 473.396 38.5268 473.503 38.1801C473.609 37.8201 473.729 37.4401 473.863 37.0401C474.009 36.6401 474.183 36.1801 474.383 35.6601L477.303 27.6401H480.163L474.523 41.6401H472.163ZM482.38 41.6401V27.6401H491.54V30.0001H484.94V39.2801H491.62V41.6401H482.38ZM483.58 35.6401V33.3201H490.52V35.6401H483.58Z" fill="white"/>
</svg>
