<svg width="257" height="63" viewBox="0 0 257 63" fill="none" xmlns="http://www.w3.org/2000/svg">
<path d="M2.46405 22.3999V-9.91821e-05H12.0001C13.4721 -9.91821e-05 14.7094 0.213235 15.7121 0.639902C16.7361 1.06657 17.5041 1.70657 18.0161 2.5599C18.5494 3.3919 18.8161 4.40523 18.8161 5.5999C18.8161 6.83724 18.4854 7.88257 17.8241 8.7359C17.1627 9.58923 16.2347 10.1759 15.0401 10.4959L15.0081 9.8559C16.0107 10.0692 16.8854 10.4532 17.6321 11.0079C18.3787 11.5412 18.9547 12.2132 19.3601 13.0239C19.7867 13.8132 20.0001 14.7199 20.0001 15.7439C20.0001 16.8319 19.8187 17.7919 19.4561 18.6239C19.1147 19.4559 18.6027 20.1492 17.9201 20.7039C17.2374 21.2586 16.4267 21.6852 15.4881 21.9839C14.5494 22.2612 13.4934 22.3999 12.3201 22.3999H2.46405ZM6.52806 18.6559H12.1281C12.9174 18.6559 13.5787 18.5386 14.1121 18.3039C14.6667 18.0692 15.0827 17.7279 15.3601 17.2799C15.6587 16.8106 15.8081 16.2559 15.8081 15.6159C15.8081 15.0186 15.6481 14.5066 15.3281 14.0799C15.0294 13.6532 14.5921 13.3332 14.0161 13.1199C13.4401 12.8852 12.7574 12.7679 11.9681 12.7679H6.52806V18.6559ZM6.52806 9.1839H11.6161C12.2347 9.1839 12.7681 9.06657 13.2161 8.8319C13.6854 8.59723 14.0481 8.27723 14.3041 7.8719C14.5601 7.46657 14.6881 6.99723 14.6881 6.4639C14.6881 5.61057 14.4001 4.94923 13.8241 4.4799C13.2481 3.98924 12.4054 3.7439 11.2961 3.7439H6.52806V9.1839ZM21.9993 22.3999L30.7353 -9.91821e-05H34.6393L43.3113 22.3999H38.9913L34.1913 9.6639C34.0846 9.4079 33.9353 9.00257 33.7433 8.4479C33.5726 7.89324 33.3806 7.2959 33.1673 6.6559C32.954 5.99457 32.762 5.38657 32.5913 4.8319C32.4206 4.2559 32.2926 3.8399 32.2073 3.5839L33.0073 3.5519C32.8793 3.97857 32.73 4.45857 32.5593 4.9919C32.3886 5.52523 32.2073 6.0799 32.0153 6.6559C31.8233 7.2319 31.6313 7.78657 31.4393 8.3199C31.2686 8.85323 31.1086 9.33324 30.9593 9.7599L26.1593 22.3999H21.9993ZM25.9673 17.2799L27.4073 13.6639H37.6153L39.1513 17.2799H25.9673ZM46.8391 22.3999V-9.91821e-05H50.9991V18.5599H61.3351V22.3999H46.8391ZM66.0891 22.3999V-9.91821e-05H70.2491V18.5599H80.5851V22.3999H66.0891ZM94.7453 22.3999V-9.91821e-05H103.737C105.359 -9.91821e-05 106.82 0.266568 108.121 0.799902C109.444 1.33323 110.575 2.10123 111.513 3.1039C112.473 4.10657 113.199 5.29057 113.689 6.6559C114.201 8.02123 114.457 9.5359 114.457 11.1999C114.457 12.8639 114.201 14.3892 113.689 15.7759C113.199 17.1412 112.484 18.3252 111.545 19.3279C110.607 20.3092 109.476 21.0666 108.153 21.5999C106.831 22.1332 105.359 22.3999 103.737 22.3999H94.7453ZM98.9053 19.1679L98.5853 18.5599H103.577C104.623 18.5599 105.551 18.3892 106.361 18.0479C107.193 17.7066 107.897 17.2159 108.473 16.5759C109.049 15.9359 109.487 15.1679 109.785 14.2719C110.084 13.3546 110.233 12.3306 110.233 11.1999C110.233 10.0692 110.084 9.0559 109.785 8.1599C109.487 7.24257 109.039 6.4639 108.441 5.8239C107.865 5.1839 107.172 4.69323 106.361 4.3519C105.551 4.01057 104.623 3.8399 103.577 3.8399H98.4893L98.9053 3.2959V19.1679ZM117.823 22.3999V18.7199H121.503V3.6799H117.823V-9.91821e-05H129.343V3.6799H125.663V18.7199H129.343V22.3999H117.823ZM141.148 22.3999L132.188 -9.91821e-05H136.732L141.724 12.8319C141.98 13.4932 142.204 14.0906 142.396 14.6239C142.588 15.1359 142.758 15.6052 142.908 16.0319C143.057 16.4586 143.185 16.8746 143.292 17.2799C143.42 17.6852 143.558 18.1119 143.708 18.5599H142.812C142.961 17.9839 143.121 17.4186 143.292 16.8639C143.462 16.2879 143.654 15.6799 143.868 15.0399C144.102 14.3999 144.38 13.6639 144.7 12.8319L149.372 -9.91821e-05H153.948L144.924 22.3999H141.148ZM157.495 22.3999V-9.91821e-05H172.151V3.7759H161.591V18.6239H172.279V22.3999H157.495ZM159.415 12.7999V9.0879H170.519V12.7999H159.415ZM177.495 22.3999V-9.91821e-05H187.223C188.567 -9.91821e-05 189.794 0.319901 190.903 0.959902C192.013 1.57857 192.887 2.4319 193.527 3.5199C194.189 4.58657 194.519 5.7919 194.519 7.1359C194.519 8.4159 194.189 9.5999 193.527 10.6879C192.887 11.7546 192.013 12.6079 190.903 13.2479C189.815 13.8666 188.589 14.1759 187.223 14.1759H181.559V22.3999H177.495ZM190.487 22.3999L184.791 12.2879L189.079 11.4879L195.415 22.4319L190.487 22.3999ZM181.559 10.5599H187.255C187.874 10.5599 188.407 10.4212 188.855 10.1439C189.325 9.84524 189.687 9.4399 189.943 8.9279C190.199 8.4159 190.327 7.85057 190.327 7.2319C190.327 6.5279 190.167 5.9199 189.847 5.4079C189.527 4.8959 189.079 4.49057 188.503 4.1919C187.927 3.89324 187.266 3.7439 186.519 3.7439H181.559V10.5599ZM203.663 22.3999V3.8399H197.263V-9.91821e-05H214.415V3.8399H207.823V22.3999H203.663ZM218.495 22.3999V-9.91821e-05H233.151V3.7759H222.591V18.6239H233.279V22.3999H218.495ZM220.415 12.7999V9.0879H231.519V12.7999H220.415ZM238.495 22.3999V-9.91821e-05H248.223C249.567 -9.91821e-05 250.794 0.319901 251.903 0.959902C253.013 1.57857 253.887 2.4319 254.527 3.5199C255.189 4.58657 255.519 5.7919 255.519 7.1359C255.519 8.4159 255.189 9.5999 254.527 10.6879C253.887 11.7546 253.013 12.6079 251.903 13.2479C250.815 13.8666 249.589 14.1759 248.223 14.1759H242.559V22.3999H238.495ZM251.487 22.3999L245.791 12.2879L250.079 11.4879L256.415 22.4319L251.487 22.3999ZM242.559 10.5599H248.255C248.874 10.5599 249.407 10.4212 249.855 10.1439C250.325 9.84524 250.687 9.4399 250.943 8.9279C251.199 8.4159 251.327 7.85057 251.327 7.2319C251.327 6.5279 251.167 5.9199 250.847 5.4079C250.527 4.8959 250.079 4.49057 249.503 4.1919C248.927 3.89324 248.266 3.7439 247.519 3.7439H242.559V10.5599ZM8.96006 62.3999L5.47171e-05 39.9999H4.54405L9.53606 52.8319C9.79206 53.4932 10.0161 54.0906 10.2081 54.6239C10.4001 55.1359 10.5707 55.6052 10.7201 56.0319C10.8694 56.4586 10.9974 56.8746 11.1041 57.2799C11.2321 57.6852 11.3707 58.1119 11.5201 58.5599H10.6241C10.7734 57.9839 10.9334 57.4186 11.1041 56.8639C11.2747 56.2879 11.4667 55.6799 11.6801 55.0399C11.9147 54.3999 12.1921 53.6639 12.5121 52.8319L17.1841 39.9999H21.7601L12.7361 62.3999H8.96006ZM20.4056 62.3999L29.1416 39.9999H33.0456L41.7176 62.3999H37.3976L32.5976 49.6639C32.4909 49.4079 32.3416 49.0026 32.1496 48.4479C31.9789 47.8932 31.7869 47.2959 31.5736 46.6559C31.3602 45.9946 31.1682 45.3866 30.9976 44.8319C30.8269 44.2559 30.6989 43.8399 30.6136 43.5839L31.4136 43.5519C31.2856 43.9786 31.1362 44.4586 30.9656 44.9919C30.7949 45.5252 30.6136 46.0799 30.4216 46.6559C30.2296 47.2319 30.0376 47.7866 29.8456 48.3199C29.6749 48.8532 29.5149 49.3332 29.3656 49.7599L24.5656 62.3999H20.4056ZM24.3736 57.2799L25.8136 53.6639H36.0216L37.5576 57.2799H24.3736ZM45.2453 62.3999V39.9999H49.4053V58.5599H59.7413V62.3999H45.2453ZM68.5851 62.3999L59.6251 39.9999H64.1691L69.1611 52.8319C69.4171 53.4932 69.6411 54.0906 69.8331 54.6239C70.0251 55.1359 70.1957 55.6052 70.3451 56.0319C70.4944 56.4586 70.6224 56.8746 70.7291 57.2799C70.8571 57.6852 70.9957 58.1119 71.1451 58.5599H70.2491C70.3984 57.9839 70.5584 57.4186 70.7291 56.8639C70.8997 56.2879 71.0917 55.6799 71.3051 55.0399C71.5397 54.3999 71.8171 53.6639 72.1371 52.8319L76.8091 39.9999H81.3851L72.3611 62.3999H68.5851ZM84.9328 62.3999V39.9999H99.5888V43.7759H89.0288V58.6239H99.7168V62.3999H84.9328ZM86.8528 52.7999V49.0879H97.9568V52.7999H86.8528Z" fill="white"/>
</svg>
