<svg width="253" height="59" viewBox="0 0 253 59" fill="none" xmlns="http://www.w3.org/2000/svg">
<path d="M1.5967 18.3198V0.27988H9.16003C11.8679 0.27988 13.9035 0.980189 15.2667 2.38081C16.6487 3.76275 17.3396 6.09711 17.3396 9.38389C17.3396 12.4839 16.658 14.7529 15.2947 16.1909C13.9501 17.6102 11.9052 18.3198 9.16003 18.3198H1.5967ZM5.37837 15.4065H8.6278C9.69227 15.4065 10.5887 15.2478 11.317 14.9303C12.0453 14.5942 12.5869 13.9966 12.9417 13.1375C13.3152 12.2598 13.5019 11.0086 13.5019 9.38389C13.5019 7.75917 13.3339 6.51729 12.9977 5.65825C12.6616 4.7992 12.1387 4.21094 11.429 3.89347C10.7194 3.576 9.78564 3.41726 8.6278 3.41726H5.37837V15.4065ZM19.9798 18.3198V0.27988H23.7615V18.3198H19.9798ZM26.9555 18.3198V0.27988H30.7652L36.0595 11.1207L41.3539 0.27988H45.1355V18.3198H41.3539V6.58266L37.152 15.2105H34.9671L30.7372 6.58266V18.3198H26.9555ZM48.3204 18.3198V0.27988H61.2621V3.22118H52.1021V7.84321H60.2256V10.7565H52.1021V15.4065H61.2621V18.3198H48.3204ZM63.8858 18.3198V0.27988H67.1633L75.7071 12.2972V0.27988H79.4887V18.3198H76.2113L67.6675 6.30253V18.3198H63.8858ZM88.2817 18.5999C87.1239 18.5999 86.0408 18.5159 85.0323 18.3478C84.0425 18.1798 83.1835 17.937 82.4552 17.6195V14.286C83.2769 14.6222 84.1639 14.893 85.1163 15.0984C86.0688 15.3038 87.0025 15.4065 87.9176 15.4065C89.2248 15.4065 90.1866 15.2852 90.8029 15.0424C91.4191 14.7996 91.7273 14.2487 91.7273 13.3897C91.7273 12.8481 91.5965 12.4186 91.3351 12.1011C91.0736 11.7836 90.6161 11.5035 89.9625 11.2607C89.3275 10.9993 88.4218 10.7098 87.2453 10.3923C85.3591 9.86944 84.0332 9.21582 83.2675 8.43147C82.5019 7.64713 82.119 6.56398 82.119 5.18204C82.119 3.51997 82.726 2.24074 83.9398 1.34435C85.1537 0.447955 86.9185 -0.000242737 89.2342 -0.000242737C90.3173 -0.000242737 91.3257 0.074457 92.2595 0.223856C93.1932 0.373256 93.9496 0.550667 94.5285 0.756091V4.08956C92.9972 3.51064 91.4004 3.22118 89.7384 3.22118C88.5619 3.22118 87.6375 3.3519 86.9652 3.61335C86.2929 3.85612 85.9567 4.37902 85.9567 5.18204C85.9567 5.64891 86.0781 6.02241 86.3209 6.30253C86.5637 6.58266 86.9745 6.83477 87.5534 7.05887C88.151 7.28296 88.9821 7.53508 90.0465 7.8152C91.5218 8.20737 92.661 8.67424 93.464 9.21582C94.267 9.75739 94.818 10.3737 95.1168 11.0646C95.4342 11.7556 95.593 12.5306 95.593 13.3897C95.593 14.9583 94.9954 16.2189 93.8002 17.1713C92.605 18.1237 90.7655 18.5999 88.2817 18.5999ZM98.2174 18.3198V0.27988H101.999V18.3198H98.2174ZM113.401 18.5999C107.555 18.5999 104.633 15.5279 104.633 9.38389C104.633 6.07843 105.371 3.68805 106.846 2.21273C108.321 0.737415 110.506 -0.000242737 113.401 -0.000242737C116.295 -0.000242737 118.48 0.737415 119.956 2.21273C121.431 3.68805 122.169 6.07843 122.169 9.38389C122.169 15.5279 119.246 18.5999 113.401 18.5999ZM113.401 15.3785C115.1 15.3785 116.342 14.893 117.126 13.9219C117.929 12.9321 118.331 11.4195 118.331 9.38389C118.331 7.12423 117.929 5.53686 117.126 4.62179C116.342 3.68805 115.1 3.22118 113.401 3.22118C111.701 3.22118 110.45 3.68805 109.647 4.62179C108.863 5.53686 108.471 7.12423 108.471 9.38389C108.471 11.4195 108.863 12.9321 109.647 13.9219C110.45 14.893 111.701 15.3785 113.401 15.3785ZM124.807 18.3198V0.27988H128.085L136.628 12.2972V0.27988H140.41V18.3198H137.133L128.589 6.30253V18.3198H124.807ZM149.756 18.3198V0.27988H157.319C160.027 0.27988 162.062 0.980189 163.426 2.38081C164.808 3.76275 165.499 6.09711 165.499 9.38389C165.499 12.4839 164.817 14.7529 163.454 16.1909C162.109 17.6102 160.064 18.3198 157.319 18.3198H149.756ZM153.537 15.4065H156.787C157.851 15.4065 158.748 15.2478 159.476 14.9303C160.204 14.5942 160.746 13.9966 161.101 13.1375C161.474 12.2598 161.661 11.0086 161.661 9.38389C161.661 7.75917 161.493 6.51729 161.157 5.65825C160.821 4.7992 160.298 4.21094 159.588 3.89347C158.878 3.576 157.945 3.41726 156.787 3.41726H153.537V15.4065ZM168.139 18.3198V0.27988H181.08V3.22118H171.92V7.84321H180.044V10.7565H171.92V15.4065H181.08V18.3198H168.139ZM188.13 18.3198V3.19316H182.584V0.27988H197.43V3.19316H191.912V18.3198H188.13ZM196.576 18.3198L203.467 0.27988H207.613L214.476 18.3198H210.554L208.845 13.9779H202.206L200.525 18.3198H196.576ZM202.766 11.0646H208.285L205.512 3.80944L202.766 11.0646ZM217.106 18.3198V0.27988H220.887V18.3198H217.106ZM224.081 18.3198V0.27988H227.863V15.4065H236.743V18.3198H224.081ZM244.429 18.5999C243.271 18.5999 242.188 18.5159 241.179 18.3478C240.189 18.1798 239.33 17.937 238.602 17.6195V14.286C239.424 14.6222 240.311 14.893 241.263 15.0984C242.216 15.3038 243.149 15.4065 244.064 15.4065C245.372 15.4065 246.333 15.2852 246.95 15.0424C247.566 14.7996 247.874 14.2487 247.874 13.3897C247.874 12.8481 247.743 12.4186 247.482 12.1011C247.221 11.7836 246.763 11.5035 246.109 11.2607C245.474 10.9993 244.569 10.7098 243.392 10.3923C241.506 9.86944 240.18 9.21582 239.414 8.43147C238.649 7.64713 238.266 6.56398 238.266 5.18204C238.266 3.51997 238.873 2.24074 240.087 1.34435C241.301 0.447955 243.065 -0.000242737 245.381 -0.000242737C246.464 -0.000242737 247.473 0.074457 248.406 0.223856C249.34 0.373256 250.096 0.550667 250.675 0.756091V4.08956C249.144 3.51064 247.547 3.22118 245.885 3.22118C244.709 3.22118 243.784 3.3519 243.112 3.61335C242.44 3.85612 242.104 4.37902 242.104 5.18204C242.104 5.64891 242.225 6.02241 242.468 6.30253C242.711 6.58266 243.121 6.83477 243.7 7.05887C244.298 7.28296 245.129 7.53508 246.193 7.8152C247.669 8.20737 248.808 8.67424 249.611 9.21582C250.414 9.75739 250.965 10.3737 251.264 11.0646C251.581 11.7556 251.74 12.5306 251.74 13.3897C251.74 14.9583 251.142 16.2189 249.947 17.1713C248.752 18.1237 246.912 18.5999 244.429 18.5999Z" fill="white"/>
<path d="M44.8043 58.5999C38.9591 58.5999 36.0365 55.5279 36.0365 49.3839C36.0365 46.0784 36.7741 43.688 38.2494 42.2127C39.7247 40.7374 41.9097 39.9998 44.8043 39.9998C47.6989 39.9998 49.8839 40.7374 51.3592 42.2127C52.8345 43.688 53.5722 46.0784 53.5722 49.3839C53.5722 55.5279 50.6496 58.5999 44.8043 58.5999ZM44.8043 55.3785C46.5037 55.3785 47.7456 54.893 48.53 53.9219C49.333 52.9321 49.7345 51.4195 49.7345 49.3839C49.7345 47.1242 49.333 45.5369 48.53 44.6218C47.7456 43.688 46.5037 43.2212 44.8043 43.2212C43.1049 43.2212 41.8537 43.688 41.0507 44.6218C40.2663 45.5369 39.8741 47.1242 39.8741 49.3839C39.8741 51.4195 40.2663 52.9321 41.0507 53.9219C41.8537 54.893 43.1049 55.3785 44.8043 55.3785ZM56.2108 58.3198V40.2799H68.9004V43.2212H59.9925V47.8432H67.8639V50.7565H59.9925V58.3198H56.2108ZM77.138 58.3198V40.2799H86.27C88.0815 40.2799 89.4261 40.7094 90.3038 41.5684C91.2002 42.4088 91.6484 43.604 91.6484 45.154C91.6484 46.1251 91.4616 46.9375 91.0881 47.5911C90.7146 48.226 90.2104 48.7209 89.5755 49.0758C90.4158 49.3372 91.0788 49.7761 91.5643 50.3923C92.0686 50.9899 92.3207 51.877 92.3207 53.0535C92.3207 54.7903 91.8258 56.1068 90.836 57.0032C89.8649 57.881 88.455 58.3198 86.6062 58.3198H77.138ZM80.9197 47.7592H85.5697C86.4848 47.7592 87.1384 47.5631 87.5306 47.1709C87.9227 46.7601 88.1188 46.1905 88.1188 45.4622C88.1188 44.6591 87.9134 44.0615 87.5026 43.6694C87.1104 43.2772 86.3727 43.0811 85.2896 43.0811H80.9197V47.7592ZM80.9197 55.5466H85.7098C86.6622 55.5466 87.3625 55.3505 87.8107 54.9583C88.2589 54.5662 88.483 53.8752 88.483 52.8854C88.483 52.0824 88.2589 51.4848 87.8107 51.0926C87.3812 50.7005 86.5968 50.5044 85.4577 50.5044H80.9197V55.5466ZM94.9466 58.3198V40.2799H102.51C105.218 40.2799 107.253 40.9802 108.617 42.3808C109.999 43.7627 110.69 46.0971 110.69 49.3839C110.69 52.4839 110.008 54.7529 108.645 56.1909C107.3 57.6102 105.255 58.3198 102.51 58.3198H94.9466ZM98.7283 55.4065H101.978C103.042 55.4065 103.939 55.2478 104.667 54.9303C105.395 54.5942 105.937 53.9966 106.292 53.1375C106.665 52.2598 106.852 51.0086 106.852 49.3839C106.852 47.7592 106.684 46.5173 106.348 45.6582C106.011 44.7992 105.489 44.2109 104.779 43.8935C104.069 43.576 103.136 43.4173 101.978 43.4173H98.7283V55.4065ZM118.539 58.3198L111.648 40.2799H115.598L120.584 54.09L125.598 40.2799H129.548L122.685 58.3198H118.539ZM144.664 58.3198L137.773 40.2799H141.722L146.709 54.09L151.723 40.2799H155.673L148.81 58.3198H144.664ZM153.967 58.3198L160.858 40.2799H165.004L171.867 58.3198H167.945L166.237 53.9779H159.598L157.917 58.3198H153.967ZM160.158 51.0646H165.676L162.903 43.8094L160.158 51.0646ZM174.497 58.3198V40.2799H178.279V55.4065H187.159V58.3198H174.497ZM191.798 58.3198L184.907 40.2799H188.856L193.843 54.09L198.857 40.2799H202.807L195.944 58.3198H191.798ZM204.725 58.3198V40.2799H217.667V43.2212H208.507V47.8432H216.631V50.7565H208.507V55.4065H217.667V58.3198H204.725Z" fill="white"/>
</svg>
