<svg width="277" height="48" viewBox="0 0 277 48" fill="none" xmlns="http://www.w3.org/2000/svg">
<path d="M0.418227 14.388V0.219999H2.53023L9.92223 10.648V0.219999H12.2982V14.388H10.1862L2.81623 3.982V14.388H0.418227ZM15.0921 14.388V0.219999H24.9701V2.09H17.4901V6.38H24.1561V8.228H17.4901V12.54H24.9701V14.388H15.0921ZM27.1878 14.388V0.219999H37.0658V2.09H29.5858V6.38H36.2518V8.228H29.5858V12.54H37.0658V14.388H27.1878ZM39.2835 14.388V0.219999H45.0255C47.1228 0.219999 48.6775 0.777333 49.6895 1.892C50.7015 2.992 51.2075 4.82533 51.2075 7.392C51.2075 9.812 50.7088 11.5867 49.7115 12.716C48.7141 13.8307 47.1521 14.388 45.0255 14.388H39.2835ZM41.6815 12.54H44.6515C45.5755 12.54 46.3455 12.408 46.9615 12.144C47.5775 11.8653 48.0395 11.352 48.3475 10.604C48.6555 9.856 48.8095 8.78533 48.8095 7.392C48.8095 5.99867 48.6701 4.92067 48.3915 4.158C48.1128 3.39533 47.6655 2.86 47.0495 2.552C46.4481 2.244 45.6488 2.09 44.6515 2.09H41.6815V12.54ZM62.9309 14.608C61.0975 14.608 59.6235 14.3733 58.5089 13.904V11.792C59.1395 12.0267 59.8142 12.2173 60.5329 12.364C61.2662 12.5107 61.9922 12.584 62.7109 12.584C63.8402 12.584 64.6835 12.452 65.2409 12.188C65.8129 11.924 66.0989 11.396 66.0989 10.604C66.0989 10.12 65.9815 9.73133 65.7469 9.438C65.5122 9.14467 65.1235 8.89533 64.5809 8.69C64.0382 8.47 63.2902 8.24267 62.3369 8.008C60.8115 7.612 59.7409 7.11333 59.1249 6.512C58.5089 5.896 58.2009 5.05267 58.2009 3.982C58.2009 2.73533 58.6555 1.76 59.5649 1.056C60.4742 0.352 61.8309 -4.76837e-07 63.6349 -4.76837e-07C64.4562 -4.76837e-07 65.2262 0.0586663 65.9449 0.176C66.6782 0.293333 67.2502 0.425333 67.6609 0.572V2.684C66.5462 2.25867 65.3142 2.046 63.9649 2.046C62.9089 2.046 62.0875 2.18533 61.5009 2.464C60.9142 2.74267 60.6209 3.24867 60.6209 3.982C60.6209 4.40733 60.7235 4.752 60.9289 5.016C61.1342 5.28 61.4862 5.50733 61.9849 5.698C62.4982 5.88867 63.2022 6.10133 64.0969 6.336C65.2555 6.62933 66.1502 6.98133 66.7809 7.392C67.4262 7.788 67.8736 8.25733 68.1229 8.8C68.3869 9.328 68.5189 9.92933 68.5189 10.604C68.5189 11.8507 68.0569 12.8333 67.1329 13.552C66.2089 14.256 64.8082 14.608 62.9309 14.608ZM77.114 14.608C74.87 14.608 73.1907 14.0213 72.076 12.848C70.9613 11.66 70.404 9.82667 70.404 7.348C70.404 4.76667 70.9613 2.89667 72.076 1.738C73.1907 0.579333 74.87 -4.76837e-07 77.114 -4.76837e-07C79.3727 -4.76837e-07 81.052 0.579333 82.152 1.738C83.2667 2.89667 83.824 4.76667 83.824 7.348C83.824 9.82667 83.2667 11.66 82.152 12.848C81.052 14.0213 79.3727 14.608 77.114 14.608ZM77.114 12.584C78.5953 12.584 79.6807 12.1807 80.37 11.374C81.074 10.5527 81.426 9.21067 81.426 7.348C81.426 5.38267 81.074 4.01133 80.37 3.234C79.6807 2.442 78.5953 2.046 77.114 2.046C75.6473 2.046 74.562 2.442 73.858 3.234C73.1687 4.01133 72.824 5.38267 72.824 7.348C72.824 9.21067 73.1687 10.5527 73.858 11.374C74.562 12.1807 75.6473 12.584 77.114 12.584ZM86.1624 14.388V0.219999H88.6264L93.1144 9.394L97.5804 0.219999H100.044V14.388H97.6684V4.114L93.8404 11.946H92.3884L88.5384 4.114V14.388H86.1624ZM102.813 14.388V0.219999H112.691V2.09H105.211V6.38H111.877V8.228H105.211V12.54H112.691V14.388H102.813ZM118.582 14.388V2.09H114.05V0.219999H125.49V2.09H120.98V14.388H118.582ZM127.412 14.388V0.219999H129.81V6.38H136.63V0.219999H139.028V14.388H136.63V8.228H129.81V14.388H127.412ZM141.807 14.388V0.219999H144.205V14.388H141.807ZM146.985 14.388V0.219999H149.097L156.489 10.648V0.219999H158.865V14.388H156.753L149.383 3.982V14.388H146.985ZM168.258 14.608C165.926 14.608 164.166 13.9773 162.978 12.716C161.805 11.4547 161.218 9.746 161.218 7.59C161.218 6.03533 161.475 4.69333 161.988 3.564C162.502 2.42 163.279 1.54 164.32 0.923999C165.376 0.307999 166.711 -4.76837e-07 168.324 -4.76837e-07C169.16 -4.76837e-07 169.916 0.0586663 170.59 0.176C171.28 0.278666 171.925 0.432666 172.526 0.638V2.706C171.324 2.266 169.989 2.046 168.522 2.046C166.718 2.046 165.45 2.52267 164.716 3.476C163.998 4.42933 163.638 5.80067 163.638 7.59C163.638 9.218 164.02 10.4573 164.782 11.308C165.545 12.1587 166.726 12.584 168.324 12.584C169.586 12.584 170.605 12.4373 171.382 12.144V8.184H167.84V6.622H173.428V13.442C172.974 13.7353 172.321 14.0067 171.47 14.256C170.634 14.4907 169.564 14.608 168.258 14.608ZM185.113 14.608C183.279 14.608 181.805 14.3733 180.691 13.904V11.792C181.321 12.0267 181.996 12.2173 182.715 12.364C183.448 12.5107 184.174 12.584 184.893 12.584C186.022 12.584 186.865 12.452 187.423 12.188C187.995 11.924 188.281 11.396 188.281 10.604C188.281 10.12 188.163 9.73133 187.929 9.438C187.694 9.14467 187.305 8.89533 186.763 8.69C186.22 8.47 185.472 8.24267 184.519 8.008C182.993 7.612 181.923 7.11333 181.307 6.512C180.691 5.896 180.383 5.05267 180.383 3.982C180.383 2.73533 180.837 1.76 181.747 1.056C182.656 0.352 184.013 -4.76837e-07 185.817 -4.76837e-07C186.638 -4.76837e-07 187.408 0.0586663 188.127 0.176C188.86 0.293333 189.432 0.425333 189.843 0.572V2.684C188.728 2.25867 187.496 2.046 186.147 2.046C185.091 2.046 184.269 2.18533 183.683 2.464C183.096 2.74267 182.803 3.24867 182.803 3.982C182.803 4.40733 182.905 4.752 183.111 5.016C183.316 5.28 183.668 5.50733 184.167 5.698C184.68 5.88867 185.384 6.10133 186.279 6.336C187.437 6.62933 188.332 6.98133 188.963 7.392C189.608 7.788 190.055 8.25733 190.305 8.8C190.569 9.328 190.701 9.92933 190.701 10.604C190.701 11.8507 190.239 12.8333 189.315 13.552C188.391 14.256 186.99 14.608 185.113 14.608ZM193.026 14.388V0.219999H199.34C200.425 0.219999 201.32 0.425333 202.024 0.835999C202.728 1.24667 203.248 1.81133 203.586 2.53C203.923 3.234 204.092 4.04067 204.092 4.95C204.092 6.358 203.652 7.48733 202.772 8.338C201.906 9.18867 200.733 9.614 199.252 9.614H195.424V14.388H193.026ZM195.424 7.722H198.812C199.765 7.722 200.484 7.47267 200.968 6.974C201.452 6.47533 201.694 5.80067 201.694 4.95C201.694 4.04067 201.459 3.33667 200.99 2.838C200.535 2.33933 199.846 2.09 198.922 2.09H195.424V7.722ZM206.002 14.388V0.219999H215.88V2.09H208.4V6.38H215.066V8.228H208.4V12.54H215.88V14.388H206.002ZM224.527 14.608C222.195 14.608 220.428 13.97 219.225 12.694C218.037 11.418 217.443 9.69467 217.443 7.524C217.443 5.96933 217.692 4.63467 218.191 3.52C218.704 2.39067 219.482 1.52533 220.523 0.923999C221.564 0.307999 222.892 -4.76837e-07 224.505 -4.76837e-07C225.326 -4.76837e-07 226.074 0.0659995 226.749 0.198C227.438 0.315333 228.076 0.476667 228.663 0.682V2.772C228.076 2.53733 227.446 2.36133 226.771 2.244C226.111 2.112 225.414 2.046 224.681 2.046C222.921 2.046 221.674 2.51533 220.941 3.454C220.222 4.39267 219.863 5.74933 219.863 7.524C219.863 9.18133 220.259 10.4427 221.051 11.308C221.843 12.1587 223.068 12.584 224.725 12.584C225.4 12.584 226.074 12.5327 226.749 12.43C227.438 12.3127 228.084 12.1367 228.685 11.902V14.014C228.098 14.2047 227.46 14.3513 226.771 14.454C226.096 14.5567 225.348 14.608 224.527 14.608ZM231.01 14.388V0.219999H233.408V14.388H231.01ZM235.77 14.388L241.182 0.219999H243.866L249.234 14.388H246.77L245.362 10.736H239.664L238.256 14.388H235.77ZM240.038 8.888H244.966L242.502 2.398L240.038 8.888ZM251.592 14.388V0.219999H253.99V12.54H261.25V14.388H251.592ZM270.223 10.824V10.34C270.223 9.75333 270.348 9.24733 270.597 8.822C270.846 8.39667 271.154 8.01533 271.521 7.678C271.902 7.34067 272.284 7.018 272.665 6.71C273.134 6.32867 273.53 5.95467 273.853 5.588C274.176 5.20667 274.337 4.74467 274.337 4.202C274.337 3.42467 274.11 2.87467 273.655 2.552C273.2 2.21467 272.401 2.046 271.257 2.046C270.641 2.046 270.025 2.12667 269.409 2.288C268.793 2.43467 268.25 2.618 267.781 2.838V0.814C268.28 0.564667 268.881 0.366667 269.585 0.219999C270.304 0.0733328 271.066 -4.76837e-07 271.873 -4.76837e-07C273.486 -4.76837e-07 274.704 0.359333 275.525 1.078C276.346 1.782 276.757 2.76467 276.757 4.026C276.757 4.84733 276.559 5.51467 276.163 6.028C275.782 6.52667 275.268 7.04 274.623 7.568C274.227 7.90533 273.875 8.206 273.567 8.47C273.274 8.734 273.039 9.02 272.863 9.328C272.702 9.62133 272.621 9.99533 272.621 10.45V10.824H270.223ZM270.135 14.388V12.584H272.687V14.388H270.135ZM0.000226639 47.388L5.41223 33.22H8.09623L13.4642 47.388H11.0002L9.59223 43.736H3.89423L2.48623 47.388H0.000226639ZM4.26823 41.888H9.19623L6.73223 35.398L4.26823 41.888ZM18.9094 47.608C17.0761 47.608 15.6021 47.3733 14.4874 46.904V44.792C15.1181 45.0267 15.7927 45.2173 16.5114 45.364C17.2447 45.5107 17.9707 45.584 18.6894 45.584C19.8187 45.584 20.6621 45.452 21.2194 45.188C21.7914 44.924 22.0774 44.396 22.0774 43.604C22.0774 43.12 21.9601 42.7313 21.7254 42.438C21.4907 42.1447 21.1021 41.8953 20.5594 41.69C20.0167 41.47 19.2687 41.2427 18.3154 41.008C16.7901 40.612 15.7194 40.1133 15.1034 39.512C14.4874 38.896 14.1794 38.0527 14.1794 36.982C14.1794 35.7353 14.6341 34.76 15.5434 34.056C16.4527 33.352 17.8094 33 19.6134 33C20.4347 33 21.2047 33.0587 21.9234 33.176C22.6567 33.2933 23.2287 33.4253 23.6394 33.572V35.684C22.5247 35.2587 21.2927 35.046 19.9434 35.046C18.8874 35.046 18.0661 35.1853 17.4794 35.464C16.8927 35.7427 16.5994 36.2487 16.5994 36.982C16.5994 37.4073 16.7021 37.752 16.9074 38.016C17.1127 38.28 17.4647 38.5073 17.9634 38.698C18.4767 38.8887 19.1807 39.1013 20.0754 39.336C21.2341 39.6293 22.1287 39.9813 22.7594 40.392C23.4047 40.788 23.8521 41.2573 24.1014 41.8C24.3654 42.328 24.4974 42.9293 24.4974 43.604C24.4974 44.8507 24.0354 45.8333 23.1114 46.552C22.1874 47.256 20.7867 47.608 18.9094 47.608ZM26.8225 47.388V33.22H29.2205V39.732L35.2485 33.22H38.0205L32.8065 38.94L38.2405 47.388H35.6885L31.3105 40.458L29.2205 42.702V47.388H26.8225ZM51.6928 47.608C49.7422 47.608 48.2242 47.1387 47.1388 46.2C46.0682 45.2613 45.5328 43.9047 45.5328 42.13V33.22H47.9308V42.042C47.9308 43.23 48.2535 44.1173 48.8988 44.704C49.5588 45.2907 50.4902 45.584 51.6928 45.584C52.8808 45.584 53.7975 45.2907 54.4428 44.704C55.1028 44.1173 55.4328 43.23 55.4328 42.042V33.22H57.8088V42.13C57.8088 43.9047 57.2735 45.2613 56.2028 46.2C55.1322 47.1387 53.6288 47.608 51.6928 47.608ZM64.7571 47.608C62.9237 47.608 61.4497 47.3733 60.3351 46.904V44.792C60.9657 45.0267 61.6404 45.2173 62.3591 45.364C63.0924 45.5107 63.8184 45.584 64.5371 45.584C65.6664 45.584 66.5097 45.452 67.0671 45.188C67.6391 44.924 67.9251 44.396 67.9251 43.604C67.9251 43.12 67.8077 42.7313 67.5731 42.438C67.3384 42.1447 66.9497 41.8953 66.4071 41.69C65.8644 41.47 65.1164 41.2427 64.1631 41.008C62.6377 40.612 61.5671 40.1133 60.9511 39.512C60.3351 38.896 60.0271 38.0527 60.0271 36.982C60.0271 35.7353 60.4817 34.76 61.3911 34.056C62.3004 33.352 63.6571 33 65.4611 33C66.2824 33 67.0524 33.0587 67.7711 33.176C68.5044 33.2933 69.0764 33.4253 69.4871 33.572V35.684C68.3724 35.2587 67.1404 35.046 65.7911 35.046C64.7351 35.046 63.9137 35.1853 63.3271 35.464C62.7404 35.7427 62.4471 36.2487 62.4471 36.982C62.4471 37.4073 62.5497 37.752 62.7551 38.016C62.9604 38.28 63.3124 38.5073 63.8111 38.698C64.3244 38.8887 65.0284 39.1013 65.9231 39.336C67.0817 39.6293 67.9764 39.9813 68.6071 40.392C69.2524 40.788 69.6997 41.2573 69.9491 41.8C70.2131 42.328 70.3451 42.9293 70.3451 43.604C70.3451 44.8507 69.8831 45.8333 68.9591 46.552C68.0351 47.256 66.6344 47.608 64.7571 47.608Z" fill="white"/>
</svg>
